<svg version="1.1" id="Layer_1" xmlns="http://www.w3.org/2000/svg" xmlns:xlink="http://www.w3.org/1999/xlink" x="0px" y="0px"
	 width="100%" viewBox="0 0 500 500" enable-background="new 0 0 500 500" xml:space="preserve">
<path fill="#000000" opacity="1.000000" stroke="none" 
	d="
M282.000000,501.000000 
	C189.333359,501.000000 97.166679,500.975616 5.000191,501.095703 
	C1.576140,501.100189 0.903036,500.423828 0.905301,497.000000 
	C1.013778,333.000092 1.013756,169.000122 0.905337,5.000247 
	C0.903074,1.576949 1.575791,0.903021 4.999876,0.905286 
	C168.999756,1.013775 332.999725,1.013761 496.999634,0.905353 
	C500.422668,0.903091 501.096985,1.575427 501.094727,4.999756 
	C500.986206,168.999634 500.986237,332.999603 501.094604,496.999512 
	C501.096893,500.422272 500.425659,501.102539 497.000244,501.096436 
	C425.500336,500.968658 354.000153,501.000000 282.000000,501.000000 
z"/>
<path fill="#FEAD04" opacity="1.000000" stroke="none" 
	d="
M366.318207,298.678955 
	C363.932465,297.538635 361.731110,297.985382 359.616608,297.984894 
	C285.098663,297.968262 210.580704,297.970154 135.603149,297.962646 
	C132.772491,299.103577 130.251938,298.234222 127.412590,298.495972 
	C120.504761,299.203888 119.675018,294.254272 118.143616,289.475159 
	C117.784393,288.943909 117.625420,288.742249 117.185333,288.277191 
	C116.904221,288.013824 116.975403,288.017517 116.972908,288.053070 
	C115.969856,286.055084 114.770302,284.212036 112.204071,283.230164 
	C111.920540,283.054413 111.982826,283.028412 111.978165,283.061829 
	C111.768951,282.788879 111.520927,282.522278 111.018143,282.122040 
	C109.767601,281.291779 108.734528,280.629333 107.331497,279.876465 
	C104.465881,277.041321 100.923454,276.724518 97.651024,276.076050 
	C92.093895,274.974854 91.562561,273.962830 94.937523,268.837982 
	C95.074249,268.486481 95.267906,268.091980 95.383720,268.080048 
	C97.957565,263.975983 97.781227,261.685150 94.019676,258.242371 
	C91.860199,256.265869 91.236351,254.638687 93.722916,252.190735 
	C93.974258,251.900375 93.974983,251.974518 93.937912,251.974182 
	C94.184410,251.783798 94.443054,251.564362 94.825287,251.107941 
	C94.973824,250.900360 94.974487,250.974335 94.937500,250.973953 
	C95.184151,250.782318 95.444839,250.563965 95.830475,250.108032 
	C95.982109,249.901932 95.986023,249.992661 95.940651,249.994293 
	C97.827080,246.748611 97.541702,243.680450 94.924141,240.983795 
	C92.567276,238.555740 91.251427,236.712616 94.874115,233.847672 
	C98.444984,231.023697 98.003418,225.880783 94.341034,222.494522 
	C91.882683,220.221527 90.948364,218.637100 94.381432,216.398666 
	C97.242081,214.533463 97.563721,211.545807 96.369461,208.078827 
	C95.899605,205.903519 94.598198,204.875748 92.774506,203.870331 
	C91.834732,202.118439 91.333382,200.290329 93.143784,199.277222 
	C97.858749,196.638657 97.370834,192.635925 96.086014,188.162048 
	C94.949257,187.285309 94.069321,186.645538 92.711784,185.744446 
	C91.664322,183.529968 92.266670,182.233444 93.881836,180.825607 
	C97.789352,177.419647 97.957024,175.312332 95.172424,170.262970 
	C94.900795,170.026855 94.976982,170.025162 94.977150,170.063263 
	C94.785507,169.817001 94.564728,169.557281 94.107864,169.170837 
	C93.900764,169.019501 93.985863,169.018127 93.986092,169.060669 
	C93.791214,168.815643 93.561340,168.559235 93.099915,168.164780 
	C90.137520,166.637100 90.983574,165.207535 93.010422,163.500031 
	C96.434731,161.071686 98.051186,158.302505 96.343765,154.063416 
	C95.846992,151.809509 94.552856,150.652878 92.824738,149.930984 
	C91.147789,149.230484 90.888329,147.879791 91.046768,146.325592 
	C91.270905,144.126877 93.047157,144.988754 94.094971,145.034363 
	C99.473236,145.268402 103.979279,142.681793 108.947403,140.513657 
	C109.391846,139.552536 110.036629,139.524506 110.775536,139.115280 
	C110.982124,138.902786 110.981987,138.971039 110.948410,138.964966 
	C113.400581,137.745590 115.478600,136.109024 116.783005,133.196960 
	C116.964668,132.913071 116.974129,132.980331 116.940216,132.978485 
	C117.710579,132.360397 118.241905,131.544983 118.764206,130.260986 
	C120.482018,127.599144 118.636169,123.522049 123.178772,122.512756 
	C208.493698,122.498756 293.358276,122.499992 378.716492,122.504028 
	C379.538788,122.524841 379.867432,122.542542 380.642517,122.771027 
	C381.088959,122.981804 381.017456,122.982735 381.017487,122.946991 
	C382.258270,125.646049 381.833099,128.882446 383.846893,131.737823 
	C384.101959,132.014359 383.998444,132.007324 384.001831,131.955566 
	C384.206970,132.182648 384.434265,132.438980 384.892395,132.826721 
	C385.101166,132.977478 385.033264,132.980148 385.039856,132.946823 
	C386.250671,135.407669 387.895935,137.477386 390.806458,138.784119 
	C391.091034,138.964874 391.015503,138.971741 391.012695,138.933899 
	C391.222137,139.202255 391.472626,139.473068 391.979919,139.880463 
	C396.401733,143.503220 401.695557,143.788025 406.671082,144.915100 
	C408.241241,145.270782 410.244415,144.697113 410.856323,146.687103 
	C411.526123,148.865356 409.694122,149.883118 408.216675,150.959030 
	C403.456757,154.425385 403.637726,159.747406 408.784546,163.520050 
	C409.814514,164.886703 410.072205,166.032745 409.253601,167.704102 
	C409.000580,168.096649 409.005829,168.013535 409.047363,168.016449 
	C407.485046,168.831238 405.945374,169.710175 405.175476,171.864044 
	C404.792725,176.186920 404.923492,179.971191 409.416504,182.061890 
	C411.233490,182.907379 411.402557,184.329117 409.486572,185.846008 
	C403.386230,190.675690 403.082153,193.633987 408.312927,198.737823 
	C410.749573,201.115280 412.026611,202.706924 407.958344,204.703293 
	C405.651642,205.835236 404.404755,208.107758 404.932129,211.319168 
	C405.084351,215.149033 408.312012,216.250458 410.260681,218.761581 
	C410.849640,220.789688 409.575134,221.197876 408.453430,221.994522 
	C405.285431,224.244461 403.372620,227.172653 404.766418,231.583557 
	C405.961548,232.717545 406.904236,233.643402 407.948242,234.435837 
	C411.126282,236.848068 411.643433,238.558487 407.620483,241.103546 
	C403.316345,243.826492 403.738617,249.613174 408.290161,252.569504 
	C411.761414,254.824158 412.193054,256.174683 408.366852,258.347687 
	C405.997803,259.693176 404.346039,261.825409 404.934509,265.305023 
	C405.403229,267.838165 406.315430,269.683289 408.384674,270.803070 
	C409.658386,271.492340 410.300354,272.602264 409.841370,274.102203 
	C409.431885,275.440308 408.190094,275.832764 407.102325,275.831512 
	C403.210754,275.826996 399.786652,277.628113 395.806335,278.622223 
	C394.693085,279.343292 393.887024,279.877899 392.661987,280.674622 
	C391.933441,281.157959 391.637573,281.396332 391.180603,281.876221 
	C391.007690,282.102997 391.015259,282.030884 391.051239,282.035339 
	C388.601471,283.253845 386.521454,284.889099 385.220001,287.804260 
	C385.040375,288.089539 385.032349,288.020172 385.067261,288.019440 
	C384.816711,288.213104 384.556641,288.437256 384.160614,288.891541 
	C384.002655,289.095886 383.995422,288.989716 384.048492,288.985901 
	C382.107452,291.456329 382.011047,294.531219 381.221741,297.768921 
	C381.022125,298.087860 381.017548,298.019775 381.051575,298.022491 
	C376.338867,299.103424 371.519806,298.167694 366.318207,298.678955 
z"/>
<path fill="#FFE6A6" opacity="1.000000" stroke="none" 
	d="
M380.218536,122.807846 
	C339.233124,123.049080 298.468323,123.096046 257.703522,123.103729 
	C212.778000,123.112198 167.852478,123.084587 122.460602,123.018204 
	C121.884384,122.832260 121.774521,122.700813 121.827286,122.370415 
	C123.150368,122.114174 124.310829,122.006783 125.471283,122.006737 
	C210.006729,122.003754 294.542175,122.009293 379.541077,122.090179 
	C380.149445,122.309555 380.294281,122.452896 380.218536,122.807846 
z"/>
<path fill="#FFF0B9" opacity="1.000000" stroke="none" 
	d="
M96.094498,208.177109 
	C99.313347,211.211884 97.678139,214.382523 94.937218,216.657379 
	C92.165497,218.957794 92.598190,220.132462 94.939743,222.355377 
	C98.972511,226.183853 98.852470,231.011795 94.657349,234.850845 
	C92.483429,236.840271 92.395576,237.969498 94.626579,239.871246 
	C97.842163,242.612305 98.935059,246.029953 96.273155,249.995422 
	C96.213867,246.331329 96.211143,243.025772 92.902084,240.172256 
	C90.931618,238.473038 90.253212,235.761765 93.625816,233.602509 
	C96.911308,231.499008 97.088417,226.639816 94.245049,223.847427 
	C91.039200,220.699066 88.693047,217.954712 94.436821,214.955399 
	C96.999611,213.617157 95.696747,210.790680 96.094498,208.177109 
z"/>
<path fill="#FFE6A6" opacity="1.000000" stroke="none" 
	d="
M395.653503,278.857361 
	C398.723358,276.098602 402.851410,276.214966 406.633759,275.252502 
	C407.728088,274.973999 409.064697,275.002960 409.326447,273.541595 
	C409.531647,272.395752 408.650085,271.780151 407.844543,271.181183 
	C406.106873,269.889130 404.591583,268.440491 404.629761,265.898621 
	C406.486847,267.411469 407.615509,269.486725 409.959961,270.612366 
	C411.296234,271.253937 412.004822,273.215485 411.876282,274.839172 
	C411.705078,277.002258 409.814972,275.719055 408.728760,275.983582 
	C404.438995,277.028351 400.117554,277.943085 395.653503,278.857361 
z"/>
<path fill="#FFE6A6" opacity="1.000000" stroke="none" 
	d="
M94.767929,268.736511 
	C93.997810,274.425842 94.008400,274.388794 101.338333,276.483551 
	C103.337303,277.054840 105.680077,277.063385 106.937576,279.511658 
	C103.140274,278.762054 99.457230,277.305908 95.529411,276.525726 
	C94.451942,276.311707 91.349197,277.647125 91.044296,274.178345 
	C90.781937,271.193542 92.440659,270.127655 94.767929,268.736511 
z"/>
<path fill="#FFF0B9" opacity="1.000000" stroke="none" 
	d="
M95.959579,188.174377 
	C98.631241,192.300964 98.337082,195.463531 94.583618,198.982727 
	C93.367363,200.123077 92.036438,201.038422 92.389061,203.358795 
	C90.098541,201.774124 89.570351,200.065125 91.617775,199.110962 
	C96.668739,196.757065 95.989906,192.545578 95.959579,188.174377 
z"/>
<path fill="#FFF0B9" opacity="1.000000" stroke="none" 
	d="
M93.612335,251.933517 
	C92.600960,254.566498 92.633263,256.472870 95.354919,258.788422 
	C98.050346,261.081696 98.985802,264.696960 95.897903,268.088043 
	C96.891914,263.864899 95.918030,260.402039 92.279434,257.771942 
	C88.699806,255.184448 89.959282,253.405426 93.612335,251.933517 
z"/>
<path fill="#FFF0B9" opacity="1.000000" stroke="none" 
	d="
M94.937012,170.430786 
	C98.372421,172.524765 98.654060,176.803009 95.545174,180.217926 
	C94.268074,181.620728 92.086998,182.359375 92.237778,185.138062 
	C89.703926,183.803360 89.699341,182.559784 92.462189,180.841171 
	C96.290581,178.459732 97.132477,174.923752 94.937012,170.430786 
z"/>
<path fill="#FFF0B9" opacity="1.000000" stroke="none" 
	d="
M117.668381,288.463745 
	C119.567513,290.174652 120.302879,292.387726 120.745132,294.606750 
	C121.220871,296.993835 122.485611,297.966187 125.113052,297.978455 
	C124.581673,298.856964 123.491882,298.320618 122.263657,298.698822 
	C117.010147,297.588715 119.267166,292.531219 117.176331,289.356476 
	C117.231087,288.807617 117.315865,288.649475 117.668381,288.463745 
z"/>
<path fill="#FFE6A6" opacity="1.000000" stroke="none" 
	d="
M404.962555,231.459869 
	C402.332520,228.310455 404.119476,225.452652 406.479645,222.780930 
	C407.529633,221.592316 408.838654,220.632568 410.179108,219.243744 
	C410.446289,218.779602 410.564514,218.640671 410.858582,218.711365 
	C411.034454,218.920990 410.998047,218.975021 411.022766,218.955109 
	C411.161224,219.125641 411.274994,219.316086 411.212952,219.789062 
	C411.315826,222.506012 408.741211,222.361084 407.691406,223.645920 
	C405.858002,225.889771 404.734497,228.170975 404.962555,231.459869 
z"/>
<path fill="#FFF0B9" opacity="1.000000" stroke="none" 
	d="
M121.602264,122.094620 
	C121.989914,122.171455 121.985321,122.567635 121.989784,122.765671 
	C121.096352,125.437050 120.198456,127.910385 119.112885,130.679382 
	C118.737892,131.097366 118.550575,131.219711 118.084930,131.154541 
	C118.496811,127.814178 117.732292,124.107346 121.602264,122.094620 
z"/>
<path fill="#FFF0B9" opacity="1.000000" stroke="none" 
	d="
M96.093300,154.190186 
	C98.973824,157.760376 97.815346,160.794586 93.557068,163.202042 
	C94.659081,160.535172 96.995781,158.112991 96.093300,154.190186 
z"/>
<path fill="#FFF0B9" opacity="1.000000" stroke="none" 
	d="
M411.005219,218.563385 
	C411.034454,218.920990 410.681305,218.888062 410.504700,218.903305 
	C407.949310,216.995392 404.765350,215.776489 404.632111,211.908020 
	C406.232330,214.511826 409.388428,215.624649 411.005219,218.563385 
z"/>
<path fill="#FFE6A6" opacity="1.000000" stroke="none" 
	d="
M366.358337,298.901611 
	C370.523132,296.726837 375.431061,298.405182 380.628754,297.903259 
	C376.455048,300.156372 371.565887,298.447693 366.358337,298.901611 
z"/>
<path fill="#FFF0B9" opacity="1.000000" stroke="none" 
	d="
M381.378540,297.943604 
	C380.246887,294.697357 381.519409,291.845825 383.738342,289.064941 
	C383.774780,292.045197 382.909760,294.963837 381.378540,297.943604 
z"/>
<path fill="#FFF0B9" opacity="1.000000" stroke="none" 
	d="
M384.057434,131.613434 
	C381.048889,130.028305 380.968842,126.846848 380.891235,123.313217 
	C383.591248,125.109917 383.005524,128.448639 384.057434,131.613434 
z"/>
<path fill="#FFF0B9" opacity="1.000000" stroke="none" 
	d="
M385.358215,287.984924 
	C385.139496,284.540863 387.871002,283.204224 390.747070,281.871552 
	C389.283508,283.986633 387.479797,285.933472 385.358215,287.984924 
z"/>
<path fill="#FFE6A6" opacity="1.000000" stroke="none" 
	d="
M116.643333,133.008789 
	C116.868599,136.449417 114.244293,137.846893 111.264030,139.098785 
	C112.717216,137.007431 114.519608,135.055969 116.643333,133.008789 
z"/>
<path fill="#FFF0B9" opacity="1.000000" stroke="none" 
	d="
M390.988586,138.645905 
	C387.570740,138.820969 386.020386,136.327637 384.861816,133.250305 
	C386.993011,134.717972 388.939575,136.522461 390.988586,138.645905 
z"/>
<path fill="#FFE6A6" opacity="1.000000" stroke="none" 
	d="
M122.448334,298.911011 
	C122.810905,298.090027 123.769821,297.781769 125.156357,297.989563 
	C128.363754,297.991577 131.284897,297.920471 134.674774,297.902588 
	C131.231583,300.287262 126.964211,298.399933 122.448334,298.911011 
z"/>
<path fill="#FFE6A6" opacity="1.000000" stroke="none" 
	d="
M112.015373,283.371216 
	C115.162811,282.673615 115.958099,285.270355 117.068146,287.726868 
	C115.350342,286.621765 113.730270,285.154877 112.015373,283.371216 
z"/>
<path fill="#FFF0B9" opacity="1.000000" stroke="none" 
	d="
M405.302429,172.028534 
	C404.753082,169.635040 406.407715,168.598312 408.726807,167.907867 
	C407.930725,169.318222 406.772583,170.617081 405.302429,172.028534 
z"/>
<path fill="#FFF0B9" opacity="1.000000" stroke="none" 
	d="
M409.401123,168.050690 
	C408.998352,166.968323 408.996124,165.839981 408.970215,164.275360 
	C412.282593,164.601349 411.363190,166.237152 409.401123,168.050690 
z"/>
<path fill="#FFE6A6" opacity="1.000000" stroke="none" 
	d="
M117.514862,131.069763 
	C117.993080,130.963531 118.179558,130.960022 118.645630,130.965775 
	C118.802361,131.893387 118.383041,132.618576 117.230743,133.027100 
	C117.011902,132.375259 117.117508,131.773865 117.514862,131.069763 
z"/>
<path fill="#FFE6A6" opacity="1.000000" stroke="none" 
	d="
M110.628273,138.941940 
	C111.139175,139.783386 110.660156,140.128281 109.533432,140.231262 
	C108.907471,139.272598 109.448647,139.004990 110.628273,138.941940 
z"/>
<path fill="#FFF0B9" opacity="1.000000" stroke="none" 
	d="
M385.026794,132.706116 
	C384.718353,132.849960 384.335571,132.722427 383.979004,132.249359 
	C384.320984,132.080795 384.636719,132.257782 385.026794,132.706116 
z"/>
<path fill="#FFF0B9" opacity="1.000000" stroke="none" 
	d="
M94.703964,250.970123 
	C94.855812,251.314651 94.737808,251.728958 94.260323,252.058548 
	C94.078598,251.662521 94.256348,251.351212 94.703964,250.970123 
z"/>
<path fill="#FFF0B9" opacity="1.000000" stroke="none" 
	d="
M391.293335,282.012451 
	C391.187805,281.732758 391.367950,281.362549 391.895569,280.964508 
	C392.021667,281.265106 391.800354,281.593506 391.293335,282.012451 
z"/>
<path fill="#FFE6A6" opacity="1.000000" stroke="none" 
	d="
M110.902252,282.231445 
	C111.218842,282.106903 111.637009,282.259552 112.014343,282.753723 
	C111.650284,282.899750 111.327057,282.704224 110.902252,282.231445 
z"/>
<path fill="#FFF0B9" opacity="1.000000" stroke="none" 
	d="
M95.710419,249.969620 
	C95.857117,250.314575 95.732117,250.727219 95.253815,251.056717 
	C95.079918,250.661484 95.259323,250.349396 95.710419,249.969620 
z"/>
<path fill="#FFF0B9" opacity="1.000000" stroke="none" 
	d="
M92.977600,168.267685 
	C93.285851,168.151703 93.668587,168.307831 94.018814,168.783585 
	C93.674904,168.915421 93.363495,168.727615 92.977600,168.267685 
z"/>
<path fill="#FFE6A6" opacity="1.000000" stroke="none" 
	d="
M117.726830,288.211731 
	C117.798386,288.603943 117.632545,288.736511 117.292465,288.899841 
	C117.146317,288.965759 116.996994,288.497070 116.950607,288.255432 
	C117.108658,288.004944 117.313095,287.996094 117.726830,288.211731 
z"/>
<path fill="#FFF0B9" opacity="1.000000" stroke="none" 
	d="
M411.311249,220.005341 
	C411.033051,219.882095 411.028900,219.692612 411.036102,219.219147 
	C411.535034,219.104645 412.220398,219.168106 411.311249,220.005341 
z"/>
<path fill="#FFF0B9" opacity="1.000000" stroke="none" 
	d="
M384.275391,289.025757 
	C384.145538,288.702423 384.288452,288.308990 384.766754,287.967102 
	C384.917480,288.331024 384.732788,288.643341 384.275391,289.025757 
z"/>
<path fill="#FFF0B9" opacity="1.000000" stroke="none" 
	d="
M93.970833,169.290527 
	C94.304756,169.145660 94.708740,169.271820 95.045029,169.749664 
	C94.665176,169.921432 94.353035,169.741486 93.970833,169.290527 
z"/>
<path fill="#FFF0B9" opacity="1.000000" stroke="none" 
	d="
M392.092407,139.774445 
	C391.788666,139.901016 391.378845,139.749634 390.989441,139.247162 
	C391.335358,139.096222 391.660797,139.296371 392.092407,139.774445 
z"/>
<path fill="#FFF0B9" opacity="1.000000" stroke="none" 
	d="
M380.273376,123.088051 
	C379.997925,123.019440 380.005585,122.592857 380.005066,122.379532 
	C380.317566,122.262337 380.630524,122.358459 381.016235,122.718193 
	C380.908936,123.040085 380.728882,123.098373 380.273376,123.088051 
z"/>
<path fill="#BA2C20" opacity="1.000000" stroke="none" 
	d="
M219.632050,236.139709 
	C219.230804,222.219193 219.187439,208.579773 219.147217,194.940338 
	C219.140671,192.723846 219.018341,190.185196 222.226044,190.435349 
	C225.354218,190.679306 229.487198,188.437332 230.981262,193.565536 
	C232.634918,199.241486 234.417694,204.879822 237.103821,210.381836 
	C237.103821,205.123993 237.296494,199.857010 237.047287,194.611023 
	C236.817780,189.780151 240.007156,190.360199 243.005890,190.309814 
	C246.126511,190.257401 248.957428,190.025070 248.875229,194.729111 
	C248.663101,206.868729 248.842148,219.014755 248.774673,231.157715 
	C248.763733,233.124420 249.557709,236.207397 246.152771,235.899490 
	C242.963669,235.611099 238.541214,238.393997 236.923157,232.871201 
	C235.310043,227.365280 233.529785,221.908340 230.790634,216.603943 
	C230.790634,222.715698 230.790634,228.827438 230.761063,235.397461 
	C227.211166,237.181610 223.571945,236.247665 219.632050,236.139709 
z"/>
<path fill="#BA2B1F" opacity="1.000000" stroke="none" 
	d="
M287.600952,236.217499 
	C282.024048,234.271301 280.065399,230.569809 280.162720,225.276596 
	C280.312469,217.131775 280.120361,208.981049 280.231445,200.834991 
	C280.327606,193.783371 282.640472,191.372421 289.668762,190.535110 
	C290.163818,190.476120 290.659363,190.414536 291.156464,190.380081 
	C306.414581,189.322083 308.972290,191.694809 308.970673,206.909653 
	C308.969971,213.394424 308.948334,219.879242 308.962830,226.363968 
	C308.972229,230.564575 307.534943,233.834579 303.059387,235.611023 
	C297.911621,237.249207 292.936035,236.205490 287.600952,236.217499 
z"/>
<path fill="#B92920" opacity="1.000000" stroke="none" 
	d="
M327.213074,234.663025 
	C326.995667,234.933456 326.863007,235.400787 326.812866,235.638458 
	C323.237305,237.172073 319.590759,236.217407 315.582611,236.292542 
	C313.812836,234.762573 314.193054,233.013977 314.188721,231.393921 
	C314.156616,219.404114 314.305084,207.411835 314.096161,195.425583 
	C314.026947,191.454056 315.415588,190.040756 319.292480,190.293060 
	C324.268463,190.616898 329.292877,190.342575 334.245972,190.834229 
	C339.908722,191.396347 342.243805,193.994278 342.079956,199.758636 
	C341.899994,206.089813 343.343048,212.470642 339.578247,218.699341 
	C337.905975,221.466034 341.483582,225.460693 342.106842,229.432770 
	C342.877045,235.607758 342.583130,235.980438 337.066010,235.988174 
	C335.576996,235.990265 334.060577,236.161819 332.287842,235.315506 
	C331.739288,234.902878 331.528229,234.734207 331.005920,234.319595 
	C330.067993,233.256134 330.004089,232.188339 329.251160,231.062897 
	C328.917480,230.600708 328.806274,230.403656 328.622620,229.879822 
	C328.527679,229.178635 328.507172,228.804123 328.490784,228.277618 
	C328.930969,230.349167 327.224854,232.210602 327.213074,234.663025 
z"/>
<path fill="#B8291F" opacity="1.000000" stroke="none" 
	d="
M160.326202,221.922348 
	C160.262558,221.513596 160.369583,221.258713 160.319183,221.130005 
	C158.985184,218.252426 158.783096,215.269073 158.324615,211.917969 
	C158.261078,211.508423 158.374603,211.261063 158.325287,211.134216 
	C156.985504,208.257675 156.783478,205.271240 156.324738,201.916840 
	C156.261459,201.506790 156.379288,201.252930 156.333160,201.120819 
	C151.445663,191.522125 152.391876,189.878143 162.609222,190.003693 
	C163.754257,190.017761 164.902618,189.981308 166.485657,190.419128 
	C166.939468,190.606171 167.132523,190.857193 167.261383,190.949219 
	C167.791824,191.692612 168.118393,192.380722 168.440247,193.465210 
	C168.051331,200.514572 171.072754,206.765045 171.066895,211.993759 
	C171.238190,210.511108 170.480194,207.526291 171.863922,204.440857 
	C172.320374,203.594940 172.507034,202.997620 172.676422,202.083313 
	C171.955719,198.402023 173.317703,195.225281 173.726013,191.570877 
	C174.041367,191.108276 174.170853,190.986374 174.323563,190.938431 
	C177.884354,189.820541 182.159805,189.246704 184.976227,190.772964 
	C189.056580,192.984222 185.493790,197.209213 184.923965,200.328400 
	C182.761108,212.167603 180.944763,224.095581 177.309662,235.923279 
	C172.510895,236.483597 168.007065,237.174667 163.325867,235.359283 
	C163.085327,234.971466 163.058487,234.958267 163.063507,234.944168 
	C162.187347,234.206680 162.660645,233.119522 162.312561,231.883514 
	C162.278107,231.523315 162.366379,231.256653 162.311569,231.127350 
	C160.988876,228.248123 160.780518,225.269974 160.326202,221.922348 
z"/>
<path fill="#B92B1E" opacity="1.000000" stroke="none" 
	d="
M191.592194,236.293884 
	C190.837021,235.385666 190.264282,234.640457 190.260437,233.892349 
	C190.191864,220.576279 190.216446,207.259750 190.156891,193.943604 
	C190.145508,191.399460 191.269241,190.323227 193.756332,190.339874 
	C199.581955,190.378876 205.409302,190.423660 211.233459,190.322906 
	C214.526917,190.265961 214.976349,192.133072 214.964432,194.817703 
	C214.952682,197.465195 214.622940,199.509918 211.256363,199.246811 
	C210.098618,199.156326 208.913925,199.357025 207.764404,199.225250 
	C204.151810,198.811096 202.766342,200.145721 202.781387,203.966110 
	C202.796082,207.697006 203.990494,209.195755 207.692871,208.772858 
	C210.896652,208.406921 213.024719,208.975174 213.006317,213.161331 
	C212.988312,217.255508 210.984818,218.019730 207.720200,217.669342 
	C204.018616,217.272049 202.851242,218.809372 202.781708,222.508118 
	C202.705658,226.554260 204.516449,227.118439 207.919159,227.091766 
	C216.230194,227.026627 216.231232,227.158447 215.003967,235.760422 
	C207.221039,236.998199 199.623428,236.299210 191.592194,236.293884 
z"/>
<path fill="#B92822" opacity="1.000000" stroke="none" 
	d="
M354.196045,217.457855 
	C351.145172,209.300140 348.394043,201.519150 345.555695,193.770081 
	C344.652191,191.303360 345.591736,190.590103 347.965393,190.332397 
	C356.757568,189.377777 357.100037,189.627686 359.624115,200.860748 
	C360.376556,201.476761 360.883972,201.892654 361.887390,201.702911 
	C363.702606,199.813171 363.456421,197.551804 363.806671,195.508179 
	C364.358032,192.290894 365.617950,190.768982 369.272125,190.902344 
	C375.940826,191.145706 376.004272,190.963470 374.322754,197.767731 
	C374.198914,198.140701 374.150879,198.052780 374.196686,198.073059 
	C372.895599,199.719040 372.904633,201.798859 372.294067,204.068970 
	C372.221832,204.442612 372.235046,204.757156 372.164429,204.897827 
	C370.619324,208.621338 369.515045,212.324844 368.458008,216.420135 
	C367.894653,217.605392 367.375000,218.428543 367.250732,219.781738 
	C367.077026,220.101593 367.033020,220.028458 367.069946,220.007111 
	C365.756805,224.025833 366.568268,228.187805 366.574158,232.276306 
	C366.581116,237.091110 363.231628,235.837936 360.656921,235.967621 
	C357.974121,236.102768 355.362000,236.404449 355.399902,232.127518 
	C355.442078,227.374878 356.458344,222.487350 354.196045,217.457855 
z"/>
<path fill="#B82624" opacity="1.000000" stroke="none" 
	d="
M147.656799,208.405090 
	C148.450333,208.646149 148.916489,208.745789 149.726578,208.943619 
	C151.494629,211.338913 151.088440,213.771011 150.357727,216.605011 
	C150.116318,217.000778 150.013596,217.058945 150.006165,217.117493 
	C147.502625,218.834442 144.576447,217.416641 141.664368,218.506836 
	C140.070343,221.059601 140.232422,223.438232 141.489349,226.111237 
	C142.041336,226.521576 142.291809,226.656372 142.977081,226.865204 
	C144.907211,227.026688 146.404373,226.995270 147.900757,227.004639 
	C150.305328,227.019699 152.533493,226.888763 152.579590,230.486435 
	C152.621048,233.723831 151.619461,235.703522 148.290268,235.875870 
	C142.809311,236.159637 137.317856,236.050598 131.832718,235.932343 
	C128.967255,235.870560 127.636215,234.013580 127.597198,231.384247 
	C127.417076,219.246490 127.434738,207.106918 127.581963,194.968674 
	C127.620399,191.800034 129.737366,190.660294 132.531250,190.567474 
	C137.351105,190.407333 142.175217,190.502213 146.997589,190.519989 
	C149.667679,190.529831 152.046860,190.890030 152.339996,194.316330 
	C152.647308,197.908401 150.247192,198.826004 147.471848,199.375397 
	C146.496216,199.568512 145.482422,199.489380 144.053177,199.551636 
	C143.349442,199.620651 143.078171,199.663620 142.441803,199.857819 
	C139.597275,202.122528 140.368378,204.651703 141.434982,207.404541 
	C143.523224,208.370087 145.498718,207.679382 147.656799,208.405090 
z"/>
<path fill="#BA390A" opacity="1.000000" stroke="none" 
	d="
M270.519043,200.020721 
	C270.903503,211.725723 270.936096,223.354324 270.945526,235.445267 
	C267.315125,237.171341 263.598083,236.222778 259.504272,236.291077 
	C257.308990,232.342560 258.333282,228.332962 258.229492,224.433548 
	C258.049347,217.663986 258.204437,210.886032 258.150604,204.112137 
	C258.138092,202.535370 258.544312,200.065567 256.465759,199.992142 
	C250.023575,199.764618 252.238632,195.145416 251.917267,191.325653 
	C259.950043,189.086121 268.035767,190.251633 276.549469,190.341583 
	C277.276978,192.321564 277.542023,194.150970 277.860840,196.371887 
	C277.698059,197.171234 277.562256,197.604370 277.485687,198.405731 
	C275.730804,199.890518 273.760498,199.526260 271.447876,199.664459 
	C270.185394,198.798798 270.531403,197.823425 270.960938,196.929977 
	C271.837769,195.106186 270.953735,194.424805 269.306061,194.401642 
	C265.872437,194.353394 262.403229,193.914886 258.281219,194.941223 
	C262.594788,198.795929 262.316833,203.458206 262.303436,208.078018 
	C262.285645,214.225677 262.214569,220.374634 262.353485,226.520844 
	C262.397461,228.465195 262.221283,231.041153 265.036407,230.994019 
	C267.808075,230.947632 267.607086,228.382324 267.649811,226.435760 
	C267.799164,219.624908 267.590881,212.809998 267.773560,205.999985 
	C267.833984,203.747284 267.455933,201.201324 270.519043,200.020721 
z"/>
<path fill="#B02E06" opacity="1.000000" stroke="none" 
	d="
M141.399597,199.308289 
	C142.947571,197.529800 145.189774,198.108047 147.304626,198.013428 
	C149.372406,197.920914 150.913239,197.397232 150.865936,194.917175 
	C150.817642,192.384079 149.113342,192.006531 147.128113,192.003510 
	C142.311340,191.996216 137.494415,192.030502 132.677826,192.000961 
	C130.189651,191.985703 129.043671,193.155960 129.048615,195.636856 
	C129.072144,207.429703 129.055740,219.222626 129.074295,231.015472 
	C129.077972,233.353165 130.152557,234.870834 132.633484,234.880661 
	C137.612885,234.900421 142.599899,234.967087 147.568893,234.718079 
	C149.704010,234.611053 151.986557,233.966003 151.897720,230.968475 
	C151.800369,227.684219 149.341339,228.114105 147.216858,227.992935 
	C145.401794,227.889389 143.589203,227.742859 141.414932,227.445541 
	C144.668167,225.582718 148.465469,226.869843 152.516205,226.913239 
	C152.898468,229.825241 152.930908,232.415543 152.950867,235.439117 
	C145.538437,237.255219 138.068405,236.143188 130.171570,236.495056 
	C129.392273,236.469437 129.081024,236.447647 128.391998,236.149597 
	C128.014206,235.873352 127.885391,235.488113 127.822205,235.295105 
	C127.240181,234.214996 127.018501,233.244583 127.033218,232.230759 
	C127.228775,218.755264 126.476295,205.270630 127.679001,191.381287 
	C128.114426,190.840469 128.291611,190.720810 128.747833,190.443115 
	C135.146149,189.666183 141.282059,190.051498 147.408905,190.033173 
	C153.385941,190.015305 154.639526,192.065552 152.408813,198.651123 
	C151.637390,199.135086 151.186249,199.228073 150.397003,199.393356 
	C147.304123,200.269791 144.533585,200.184677 141.399597,199.308289 
z"/>
<path fill="#F7951D" opacity="1.000000" stroke="none" 
	d="
M152.425735,199.061432 
	C152.082062,197.716736 151.966461,196.381058 152.090729,195.068085 
	C152.395538,191.847610 151.024017,190.657684 147.799759,190.718689 
	C141.842545,190.831390 135.879440,190.632385 129.472839,190.424164 
	C134.530029,187.518051 140.399048,189.206299 146.059052,189.175568 
	C151.156708,189.147903 156.259857,189.186737 161.363922,189.056061 
	C163.126358,189.010956 165.051193,188.546722 166.758362,190.303955 
	C166.116043,190.659637 165.293243,190.745621 164.469101,190.761581 
	C155.193237,190.941299 155.193176,190.938416 156.276398,200.557297 
	C155.121597,200.335617 154.300842,199.045898 152.425735,199.061432 
z"/>
<path fill="#F7951D" opacity="1.000000" stroke="none" 
	d="
M127.592773,191.137268 
	C127.927299,205.358139 127.917336,219.756165 127.833191,234.628128 
	C126.155518,234.282486 126.051308,232.794464 126.051552,231.263016 
	C126.053482,218.985580 126.053810,206.708160 126.064186,194.430725 
	C126.065178,193.254440 126.172691,192.094055 127.592773,191.137268 
z"/>
<path fill="#BA390A" opacity="1.000000" stroke="none" 
	d="
M374.441101,197.883804 
	C374.227295,191.909653 373.674103,191.464203 368.323242,191.949402 
	C365.731537,192.184402 365.094513,193.729141 364.561401,195.752487 
	C363.725739,198.924179 364.023651,202.357895 362.079865,205.593872 
	C360.790009,204.550476 360.924225,203.147537 361.735229,201.350967 
	C362.275726,200.037628 362.636963,199.098740 362.835663,198.126617 
	C364.608490,189.452133 362.792145,190.456406 372.554993,190.188690 
	C376.470367,190.081314 377.289337,191.492447 375.801270,194.848907 
	C375.396942,195.760880 375.054260,196.700165 374.441101,197.883804 
z"/>
<path fill="#F7951D" opacity="1.000000" stroke="none" 
	d="
M276.793701,190.208633 
	C268.970703,190.582291 260.929443,190.672409 252.417740,190.816223 
	C252.526443,190.331192 253.100830,189.329895 253.685486,189.323853 
	C261.320404,189.244904 268.994232,188.029541 276.793701,190.208633 
z"/>
<path fill="#F7951D" opacity="1.000000" stroke="none" 
	d="
M140.874191,199.061981 
	C143.753021,199.091675 146.461212,199.179657 149.614166,199.366638 
	C149.155838,200.968399 147.657990,200.932983 146.185547,200.963486 
	C144.154266,201.005585 142.169891,201.069519 142.063797,203.881531 
	C141.959229,206.653000 143.847458,206.930634 145.909897,207.162811 
	C146.502869,207.229538 147.050690,207.697266 147.801697,208.263809 
	C145.719635,208.651245 143.455109,208.755981 140.766876,208.870758 
	C138.571716,205.945572 139.888290,202.753632 139.961334,199.407944 
	C140.342926,199.119095 140.703568,199.120285 140.874191,199.061981 
z"/>
<path fill="#B02E06" opacity="1.000000" stroke="none" 
	d="
M353.959351,217.482361 
	C357.957550,220.767578 355.623047,225.551331 355.854858,229.799728 
	C356.064209,233.636383 357.182800,235.108505 361.120483,235.058044 
	C364.793457,235.011002 366.184723,233.725693 366.078217,230.054962 
	C365.987671,226.935760 365.448975,223.730850 366.861633,220.323578 
	C367.111725,225.025864 367.116547,230.065964 367.039032,235.568939 
	C363.280609,237.015869 359.544556,236.314850 355.440979,236.179901 
	C354.483917,229.932495 355.853973,223.819504 353.959351,217.482361 
z"/>
<path fill="#F7951D" opacity="1.000000" stroke="none" 
	d="
M152.573242,226.959900 
	C149.229858,227.216293 145.593674,227.197632 141.505920,227.227356 
	C140.891434,227.205582 140.728500,227.135452 140.313400,226.980469 
	C138.949280,224.282288 139.706314,221.552811 139.774246,218.477890 
	C142.903366,216.478104 146.075989,217.525787 149.557495,217.186981 
	C149.062073,219.379166 147.050705,218.933517 145.316299,218.988113 
	C142.731506,219.069489 141.929504,220.474640 142.007126,222.834473 
	C142.083786,225.164810 143.375214,225.906677 145.496445,226.018051 
	C147.762817,226.137054 150.113815,225.532379 152.573242,226.959900 
z"/>
<path fill="#FFA336" opacity="1.000000" stroke="none" 
	d="
M171.891617,204.296021 
	C172.050995,208.146591 172.008972,212.105728 170.435898,216.971512 
	C169.536377,208.653122 168.744385,201.328934 167.965179,193.567307 
	C168.119690,192.976456 168.261383,192.823044 168.676514,192.822540 
	C169.303375,196.532364 169.653702,200.089600 170.012024,203.646011 
	C170.129074,204.807861 170.732651,204.954391 171.891617,204.296021 
z"/>
<path fill="#F7951D" opacity="1.000000" stroke="none" 
	d="
M330.800720,233.038574 
	C330.939423,233.380249 330.918335,233.655716 330.971344,233.783295 
	C331.134033,234.128128 331.243713,234.345413 331.085510,234.810715 
	C329.689453,234.735840 328.954254,231.426819 327.180542,234.768951 
	C326.876007,231.155701 326.280762,227.360901 327.715881,223.358978 
	C328.750854,223.776352 328.377258,224.719696 328.781006,225.791534 
	C328.958618,226.061172 328.993988,226.007721 328.963409,225.998108 
	C329.796295,226.744797 329.333923,227.861542 329.792694,229.112213 
	C329.899933,229.467422 329.836578,229.711304 329.885773,229.827301 
	C330.796967,230.697540 330.340485,231.799927 330.800720,233.038574 
z"/>
<path fill="#FFA336" opacity="1.000000" stroke="none" 
	d="
M191.475250,236.356506 
	C198.730728,236.102768 206.316452,236.073303 214.347687,236.068939 
	C207.165680,237.912048 199.481598,237.058197 191.475250,236.356506 
z"/>
<path fill="#FFA336" opacity="1.000000" stroke="none" 
	d="
M128.797958,236.323212 
	C136.684509,236.072464 144.350464,236.016510 152.477386,235.916473 
	C148.918015,238.247360 144.528076,236.681107 140.320190,236.990356 
	C136.861786,237.244507 133.368317,237.021912 129.418686,236.993332 
	C128.823761,236.823349 128.700562,236.670670 128.797958,236.323212 
z"/>
<path fill="#B02E06" opacity="1.000000" stroke="none" 
	d="
M330.890045,235.259277 
	C330.855164,234.868362 330.892700,234.677994 330.977295,234.199234 
	C333.090332,234.544846 335.166779,234.978500 337.363281,234.992645 
	C340.399353,235.012207 342.103973,233.829895 342.087952,230.224182 
	C343.225616,231.471710 343.724518,233.344284 344.024445,235.647522 
	C339.967072,237.021301 335.882080,236.323608 331.437866,236.149200 
	C331.052277,235.876724 330.962494,235.459824 330.890045,235.259277 
z"/>
<path fill="#BA390A" opacity="1.000000" stroke="none" 
	d="
M367.689148,217.358673 
	C368.267242,212.983932 369.415405,209.082596 371.821838,205.266159 
	C371.531647,209.347748 369.826813,213.314484 368.196014,217.652069 
	C367.833099,217.825150 367.673279,217.710434 367.689148,217.358673 
z"/>
<path fill="#FFA336" opacity="1.000000" stroke="none" 
	d="
M287.494751,236.246063 
	C292.091339,235.949585 296.994415,235.903046 302.340942,235.840271 
	C297.882324,238.106339 292.828705,237.009247 287.494751,236.246063 
z"/>
<path fill="#F7951D" opacity="1.000000" stroke="none" 
	d="
M150.441162,216.846100 
	C150.092453,214.640778 150.068604,212.280777 150.057617,209.481293 
	C153.142563,211.333450 152.306473,213.980423 150.441162,216.846100 
z"/>
<path fill="#F7951D" opacity="1.000000" stroke="none" 
	d="
M163.213669,235.335236 
	C167.284027,236.999435 171.772430,235.432617 176.545715,236.083588 
	C172.405823,237.345749 167.825043,238.010239 163.213669,235.335236 
z"/>
<path fill="#FFA336" opacity="1.000000" stroke="none" 
	d="
M331.366089,236.139923 
	C335.058838,235.921906 339.065399,235.967102 343.533813,236.015228 
	C339.946198,237.931015 335.813354,237.176529 331.366089,236.139923 
z"/>
<path fill="#FFA336" opacity="1.000000" stroke="none" 
	d="
M173.663925,191.453735 
	C173.553406,194.458557 173.205750,197.721390 172.758636,201.375275 
	C171.494904,198.306381 171.945145,194.969681 173.663925,191.453735 
z"/>
<path fill="#FFA336" opacity="1.000000" stroke="none" 
	d="
M361.626099,200.995224 
	C361.932495,202.346451 361.875092,203.700958 361.819031,205.456726 
	C358.885040,205.670227 360.519196,203.196716 359.827026,201.537476 
	C360.301727,201.126755 360.782043,201.062637 361.626099,200.995224 
z"/>
<path fill="#F7951D" opacity="1.000000" stroke="none" 
	d="
M160.206268,221.966553 
	C161.631653,224.233688 161.955017,227.193893 162.252457,230.579529 
	C159.880600,228.549606 159.982635,225.492569 160.206268,221.966553 
z"/>
<path fill="#F7951D" opacity="1.000000" stroke="none" 
	d="
M156.205521,201.960358 
	C157.657990,204.224960 157.952667,207.197906 158.269989,210.587189 
	C155.877182,208.561066 155.984116,205.494736 156.205521,201.960358 
z"/>
<path fill="#FFA336" opacity="1.000000" stroke="none" 
	d="
M355.360748,236.185211 
	C358.711548,235.960938 362.378601,235.989426 366.501160,236.024857 
	C363.254211,237.761673 359.470886,237.247025 355.360748,236.185211 
z"/>
<path fill="#FFA336" opacity="1.000000" stroke="none" 
	d="
M315.477142,236.352905 
	C318.737366,236.067932 322.317871,236.005981 326.330566,235.910065 
	C323.226044,237.964981 319.497864,237.053085 315.477142,236.352905 
z"/>
<path fill="#FFA336" opacity="1.000000" stroke="none" 
	d="
M259.403503,236.346115 
	C262.719788,236.084335 266.370605,236.039124 270.471893,235.950745 
	C267.300079,237.932800 263.508636,237.069275 259.403503,236.346115 
z"/>
<path fill="#FFA336" opacity="1.000000" stroke="none" 
	d="
M219.544281,236.130402 
	C222.807678,235.885376 226.342239,235.912109 230.304138,235.897308 
	C227.187347,237.926773 223.503555,237.207718 219.544281,236.130402 
z"/>
<path fill="#F7951D" opacity="1.000000" stroke="none" 
	d="
M158.205536,211.961884 
	C159.648544,214.226685 159.950729,217.195496 160.263916,220.582092 
	C157.877991,218.555008 157.983780,215.492630 158.205536,211.961884 
z"/>
<path fill="#BA390A" opacity="1.000000" stroke="none" 
	d="
M372.454041,204.145340 
	C371.953033,202.299118 371.992798,200.229233 373.936096,198.316833 
	C374.262909,200.157394 373.431549,201.991089 372.454041,204.145340 
z"/>
<path fill="#F7951D" opacity="1.000000" stroke="none" 
	d="
M168.895096,192.710526 
	C168.949936,192.975449 168.461639,193.037079 168.219818,193.083481 
	C167.776596,192.615662 167.575195,192.101456 167.382019,191.314240 
	C167.873581,191.509354 168.356918,191.977478 168.895096,192.710526 
z"/>
<path fill="#B02E06" opacity="1.000000" stroke="none" 
	d="
M367.670227,217.368088 
	C367.864899,217.121613 367.926575,217.531448 367.959717,217.735657 
	C367.834656,218.520142 367.676453,219.100433 367.297607,219.891144 
	C367.209869,219.272583 367.342712,218.443573 367.670227,217.368088 
z"/>
<path fill="#F7951D" opacity="1.000000" stroke="none" 
	d="
M162.228287,231.892960 
	C162.552109,232.422913 162.826111,233.322525 163.084305,234.576096 
	C162.315506,234.193176 162.104813,233.275330 162.228287,231.892960 
z"/>
<path fill="#F7951D" opacity="1.000000" stroke="none" 
	d="
M277.594269,198.531509 
	C277.526215,198.242493 277.588379,197.736374 277.782593,196.996826 
	C277.851227,197.280411 277.787872,197.797394 277.594269,198.531509 
z"/>
<path fill="#F7951D" opacity="1.000000" stroke="none" 
	d="
M128.770020,236.054657 
	C129.018570,236.128418 128.982193,236.552505 128.964584,236.764282 
	C128.677109,236.790192 128.445374,236.565079 128.132980,236.087036 
	C128.183289,235.909210 128.352386,235.945053 128.770020,236.054657 
z"/>
<path fill="#F7951D" opacity="1.000000" stroke="none" 
	d="
M296.333618,208.076385 
	C296.325775,213.554977 296.347870,218.545715 296.288055,223.535477 
	C296.272858,224.805252 296.459473,226.546341 294.653778,226.661804 
	C292.698975,226.786789 292.889923,224.989105 292.880005,223.742722 
	C292.825775,216.922958 292.830170,210.102448 292.871307,203.282532 
	C292.878998,202.014191 292.667938,200.239502 294.469604,200.144791 
	C296.323334,200.047363 296.201019,201.817490 296.281372,203.098343 
	C296.374939,204.590164 296.322327,206.091171 296.333618,208.076385 
z"/>
<path fill="#F7951D" opacity="1.000000" stroke="none" 
	d="
M330.119019,210.553467 
	C329.490784,210.936020 329.098541,211.085022 328.837952,210.959869 
	C324.846100,209.042572 327.436340,205.475021 326.899200,202.704285 
	C326.634369,201.338318 326.299683,198.951447 329.603088,199.924377 
	C331.091614,203.385010 330.302643,206.810471 330.119019,210.553467 
z"/>
<path fill="#B02E06" opacity="1.000000" stroke="none" 
	d="
M330.088409,210.615997 
	C329.871521,207.594955 329.921265,204.275375 329.949005,200.504807 
	C331.736359,203.405533 331.245972,206.853149 330.088409,210.615997 
z"/>
<path fill="#B02E06" opacity="1.000000" stroke="none" 
	d="
M328.974030,225.777435 
	C328.648682,225.284607 328.338715,224.508026 328.029877,223.410934 
	C329.703979,223.351715 328.743622,224.663223 328.974030,225.777435 
z"/>
<path fill="#B02E06" opacity="1.000000" stroke="none" 
	d="
M330.944489,233.004364 
	C330.615967,232.476929 330.292542,231.573608 329.952026,230.306778 
	C330.273163,230.838348 330.611359,231.733414 330.944489,233.004364 
z"/>
<path fill="#B02E06" opacity="1.000000" stroke="none" 
	d="
M329.901611,229.088043 
	C329.574127,228.552612 329.248291,227.637817 328.927643,226.355743 
	C329.256317,226.895203 329.579803,227.801926 329.901611,229.088043 
z"/>
<path fill="#B02E06" opacity="1.000000" stroke="none" 
	d="
M140.047089,199.391968 
	C140.289215,202.082199 140.235489,205.045319 140.262482,208.444611 
	C138.083710,205.941269 138.724579,202.815445 140.047089,199.391968 
z"/>
<path fill="#B02E06" opacity="1.000000" stroke="none" 
	d="
M139.755707,218.383423 
	C140.006714,220.724808 140.028091,223.373108 140.055328,226.458527 
	C138.309540,224.263138 138.822662,221.482941 139.755707,218.383423 
z"/>
<path fill="#B82624" opacity="1.000000" stroke="none" 
	d="
M270.935791,200.007462 
	C269.011871,206.276108 270.381195,212.605072 270.026245,218.855347 
	C269.847626,222.000534 269.846405,225.172989 270.032471,228.317291 
	C270.254669,232.072647 269.415466,234.152573 264.923676,234.157730 
	C260.291016,234.163025 259.874908,231.800507 259.934113,228.190582 
	C260.067596,220.055374 259.955353,211.916382 259.983124,203.779068 
	C259.992676,200.981354 259.922577,198.368652 256.231018,197.898666 
	C254.339432,197.657852 253.950943,196.189117 254.089569,194.550049 
	C254.248184,192.674362 255.511963,192.044144 257.183655,192.032455 
	C261.999237,191.998749 266.815216,191.972641 271.630707,192.000961 
	C273.438507,192.011612 275.452454,191.827271 275.878571,194.368393 
	C276.320801,197.005569 274.772400,197.903763 272.520691,198.269135 
	C272.091522,198.338760 271.728973,198.819031 271.183777,199.404266 
	C271.031891,199.698715 271.000641,199.917801 270.935791,200.007462 
z"/>
</svg>